<?xml version="1.0" encoding="UTF-8"?>
<svg id="Layer_1" xmlns="http://www.w3.org/2000/svg" version="1.1" viewBox="0 0 317.4 319.92">
  <!-- Generator: Adobe Illustrator 30.5.1, SVG Export Plug-In . SVG Version: 2.1.4 Build 3)  -->
  <defs>
    <style>
      .st0 {
        fill: #fff;
      }
    </style>
  </defs>
  <g id="Layer_2">
    <g id="_09.whatsapp">
      <g id="icon">
        <path class="st0" d="M271.56,47.06c-61.69-62.3-162.2-62.8-224.5-1.11C-1.98,94.5-14.03,169.19,17.25,230.71L.41,312.48c-.35,1.65,0,3.36.96,4.74,1.43,2.12,4.03,3.13,6.52,2.53l80.15-19c78.5,39.02,173.76,7.01,212.78-71.49,30.19-60.75,18.44-133.97-29.24-182.22h0ZM246.57,246.5c-37.79,37.68-95.41,47.05-143.19,23.27l-11.17-5.53-49.13,11.64.15-.61,10.18-49.45-5.47-10.79c-24.42-47.96-15.19-106.2,22.87-144.26,48.54-48.53,127.23-48.53,175.77,0,.2.23.41.44.64.64,47.92,48.63,47.64,126.82-.64,175.1Z"/>
        <path class="st0" d="M242.21,210.23c-6.02,9.48-15.53,21.09-27.49,23.97-20.95,5.06-53.09.17-93.09-37.12l-.49-.44c-35.17-32.61-44.31-59.75-42.09-81.28,1.22-12.22,11.4-23.27,19.99-30.49,4.8-4.1,12.02-3.53,16.12,1.27.73.85,1.32,1.8,1.77,2.83l12.95,29.09c1.71,3.84,1.17,8.32-1.43,11.64l-6.55,8.49c-2.87,3.59-3.28,8.56-1.02,12.57,3.67,6.43,12.45,15.88,22.2,24.64,10.94,9.89,23.07,18.94,30.75,22.02,4.2,1.72,9.03.7,12.19-2.56l7.59-7.65c2.98-2.94,7.32-4.05,11.35-2.91l30.75,8.73c6.14,1.88,9.6,8.39,7.71,14.54-.29.93-.69,1.82-1.2,2.66h0Z"/>
      </g>
    </g>
  </g>
</svg>